<svg width="34" height="9" viewBox="0 0 34 9" fill="none" xmlns="http://www.w3.org/2000/svg">
<path d="M4.37459 0.371338L0.650269 8.61816H5.10879L5.66153 7.30327H6.92493L7.47767 8.61816H12.3853V7.6146L12.8226 8.61816H15.3611L15.7985 7.59339V8.61816H26.0049L27.246 7.33743L28.4081 8.61816L33.6503 8.62876L29.9142 4.51777L33.6503 0.371338H28.4894L27.2813 1.62841L26.1558 0.371338H15.0525L14.099 2.49991L13.1232 0.371338H8.67399V1.34075L8.17905 0.371338H4.37459ZM5.23728 1.5424H7.41057L9.88092 7.13461V1.5424H12.2617L14.1697 5.55199L15.9282 1.5424H18.297V7.46004H16.8557L16.844 2.82301L14.7425 7.46004H13.4531L11.3399 2.82301V7.46004H8.37462L7.81245 6.13338H4.7753L4.2143 7.45887H2.62553L5.23728 1.5424ZM19.6158 1.5424H25.4769L27.2694 3.47994L29.1198 1.5424H30.9125L28.1888 4.5166L30.9125 7.45654H29.0385L27.246 5.49651L25.3862 7.45654H19.6158V1.5424ZM6.29453 2.54364L5.29391 4.90696H7.29398L6.29453 2.54364ZM21.0632 2.76765V3.84792H24.2606V5.05195H21.0632V6.2313H24.6495L26.316 4.49424L24.7203 2.76661H21.0632V2.76765Z" fill="#3D84B9"/>
</svg>
