<svg width="18" height="15" viewBox="0 0 18 15" fill="none" xmlns="http://www.w3.org/2000/svg">
<path fill-rule="evenodd" clip-rule="evenodd" d="M7.84854 14.7384H10.4829C14.5948 14.7384 17.8713 11.5285 18 7.56343V7.5005C17.9356 3.47246 14.5948 0.199681 10.4829 0.262611H7.52794C3.60911 0.388574 0.525496 3.66124 0.654153 7.56343C0.654153 11.4656 3.86537 14.6755 7.84854 14.7384ZM1.93864 7.50111C1.93864 4.22833 4.70061 1.52202 8.04153 1.52202C11.3825 1.52202 14.1444 4.22833 14.1444 7.50111C14.1444 10.7739 11.3825 13.4802 8.04153 13.4802C4.70061 13.4802 1.93864 10.7739 1.93864 7.50111ZM9.00542 11.529V3.53579C11.2538 4.10227 12.6669 6.30513 12.0891 8.50789C11.7041 10.0184 10.5472 11.1512 9.00542 11.529ZM4.05836 6.49392C3.48043 8.69668 4.82926 10.9625 7.07764 11.529V3.53579C5.60017 3.91348 4.44329 5.04632 4.05836 6.49392Z" fill="#1B79BE"/>
</svg>
