<svg width="29" height="13" viewBox="0 0 29 13" fill="none" xmlns="http://www.w3.org/2000/svg">
<path d="M0.0562439 5.68057C0.0673229 5.54873 0.0739699 5.41579 0.0905889 5.28505C0.194731 4.49401 0.514914 3.82484 1.19073 3.36174C1.56188 3.10692 1.97734 2.98062 2.42937 2.98284C2.68972 2.98395 2.93346 3.0615 3.17387 3.15235C3.33895 3.21439 3.50403 3.27754 3.67021 3.33847C3.83751 3.39941 4.0048 3.39941 4.1732 3.33737C4.40918 3.24984 4.64517 3.1601 4.88336 3.07812C5.14483 2.98727 5.41405 2.93187 5.69102 2.94849C6.38789 2.9917 6.97619 3.24984 7.3983 3.82817C7.40716 3.84035 7.41492 3.85254 7.42378 3.86473C7.426 3.86805 7.4271 3.87137 7.42932 3.87802C6.75904 4.33891 6.37349 4.95601 6.42778 5.79136C6.48206 6.6234 6.93298 7.19064 7.67195 7.56068C7.64314 7.64488 7.61545 7.7313 7.58221 7.8166C7.33515 8.46473 6.96732 9.03972 6.50976 9.55711C6.32696 9.76429 6.10759 9.92715 5.83284 9.99587C5.54146 10.069 5.26337 10.0158 4.99083 9.90499C4.82243 9.8363 4.65514 9.75986 4.48009 9.71333C4.08014 9.60586 3.68905 9.65572 3.30682 9.81304C3.13399 9.88394 2.95894 9.95596 2.77835 10.0047C2.39502 10.1089 2.06376 9.98807 1.77127 9.73549C1.50427 9.50615 1.29931 9.22364 1.09878 8.9378C0.62903 8.26863 0.325463 7.52744 0.160386 6.72865C0.107207 6.46829 0.0728619 6.20572 0.0651069 5.93982C0.0639989 5.91212 0.0584599 5.88554 0.0562439 5.85784C0.0562439 5.79912 0.0562439 5.7404 0.0562439 5.68057Z" fill="black"/>
<path d="M5.72754 0.688232C5.74527 0.921999 5.72865 1.15245 5.65996 1.37735C5.46608 2.01993 5.08274 2.49744 4.44902 2.75225C4.25736 2.82981 4.05683 2.86304 3.83746 2.8431C3.83746 2.74228 3.82749 2.64036 3.83857 2.54064C3.8984 2.00885 4.13549 1.56458 4.5299 1.20784C4.83679 0.93197 5.19797 0.759138 5.609 0.699311C5.61897 0.698203 5.62894 0.692664 5.64002 0.688232C5.66882 0.688232 5.69874 0.688232 5.72754 0.688232Z" fill="black"/>
<path d="M10.1622 1.34228C10.1866 1.34228 10.2065 1.34228 10.2265 1.34228C11.29 1.34228 12.3525 1.34006 13.4161 1.34339C13.99 1.3456 14.5306 1.47633 15.0181 1.78876C15.5654 2.13997 15.9266 2.63409 16.1061 3.25673C16.3077 3.95582 16.2944 4.6549 16.0197 5.33183C15.6729 6.18823 15.0259 6.70562 14.1362 6.92831C13.8814 6.99257 13.6211 7.01805 13.3585 7.01805C12.7647 7.01694 12.1697 7.01805 11.5759 7.01805C11.5537 7.01805 11.5316 7.01805 11.5039 7.01805C11.5039 7.99965 11.5039 8.97793 11.5039 9.96063C11.0541 9.96063 10.6109 9.96063 10.1633 9.96063C10.1622 7.09006 10.1622 4.2206 10.1622 1.34228ZM11.5016 5.89021C11.5216 5.89132 11.536 5.89353 11.5504 5.89353C12.0501 5.89353 12.5508 5.89353 13.0505 5.89353C13.2854 5.89353 13.518 5.86805 13.744 5.80158C14.2659 5.64758 14.6259 5.32186 14.7821 4.79339C14.8985 4.40119 14.8985 4.00346 14.7943 3.60904C14.6846 3.19469 14.4398 2.88115 14.0531 2.68505C13.7928 2.55321 13.5125 2.48563 13.2233 2.4812C12.6661 2.47123 12.1088 2.47455 11.5515 2.47345C11.536 2.47345 11.5194 2.47566 11.5016 2.47788C11.5016 3.61569 11.5016 4.75018 11.5016 5.89021Z" fill="black"/>
<path d="M20.6423 6.2353C20.6301 5.98935 20.6379 5.74561 20.6024 5.50852C20.5503 5.15842 20.3398 4.91358 20.0064 4.79392C19.5676 4.6366 19.1234 4.62995 18.6913 4.8194C18.38 4.95568 18.1739 5.19056 18.093 5.52736C18.0897 5.54066 18.0686 5.55948 18.0553 5.56059C17.6698 5.5617 17.2842 5.5617 16.8976 5.5617C16.8921 5.5617 16.8876 5.55838 16.8788 5.55617C16.8865 5.38223 16.9164 5.21272 16.974 5.04875C17.1447 4.56792 17.4759 4.22668 17.9157 3.98405C18.2825 3.7813 18.6791 3.67716 19.0957 3.64614C19.5998 3.60847 20.0939 3.65168 20.5714 3.82451C20.9735 3.97075 21.3181 4.19899 21.5718 4.55019C21.7801 4.83825 21.8876 5.16396 21.913 5.51627C21.9197 5.60823 21.9197 5.70018 21.9197 5.79325C21.9197 7.15819 21.9197 8.52312 21.9197 9.88917C21.9197 9.91465 21.9197 9.94013 21.9197 9.96783C21.5042 9.96783 21.0943 9.96783 20.6777 9.96783C20.6777 9.62549 20.6777 9.28425 20.6777 8.94191C20.6733 8.93969 20.6678 8.93747 20.6633 8.93636C20.6545 8.94744 20.6423 8.95742 20.6356 8.9696C20.3177 9.52134 19.828 9.84042 19.2186 9.97669C18.6603 10.1019 18.1096 10.0553 17.5878 9.8094C17.015 9.53907 16.6705 9.08594 16.5818 8.45554C16.5253 8.05337 16.5741 7.66449 16.789 7.30887C16.9663 7.01749 17.2233 6.81696 17.5269 6.66961C17.826 6.52447 18.144 6.43362 18.473 6.39706C18.8519 6.35496 19.233 6.3328 19.6142 6.30621C19.9343 6.28405 20.2545 6.26744 20.5758 6.2475C20.5935 6.24417 20.6091 6.24084 20.6423 6.2353ZM20.6323 7.14378C20.588 7.1471 20.5537 7.15154 20.5182 7.15376C20.0008 7.187 19.4834 7.21801 18.9671 7.25568C18.7478 7.27229 18.5351 7.32547 18.3356 7.42298C17.9091 7.63236 17.8016 8.02457 17.9091 8.38685C17.99 8.6594 18.1905 8.8278 18.4509 8.91311C19.0026 9.09259 19.5366 9.0405 20.0318 8.72918C20.3243 8.54527 20.5138 8.27717 20.5946 7.93926C20.6567 7.6778 20.6223 7.413 20.6323 7.14378Z" fill="black"/>
<path d="M22.443 3.71278C22.4662 3.71278 22.4851 3.71278 22.5028 3.71278C22.9293 3.71278 23.3559 3.71389 23.7813 3.71167C23.8289 3.71167 23.8456 3.72718 23.86 3.7715C24.3729 5.43224 24.887 7.09187 25.4022 8.75261C25.4077 8.77034 25.4143 8.78917 25.421 8.8069C25.4265 8.8069 25.431 8.80801 25.4365 8.80801C25.4443 8.79139 25.4542 8.77588 25.4598 8.75926C25.6193 8.24298 25.7788 7.7267 25.9395 7.20931C26.294 6.06153 26.6497 4.91485 27.0042 3.76707C27.0175 3.72497 27.0352 3.71167 27.0806 3.71167C27.4939 3.71389 27.9071 3.71278 28.3204 3.71278C28.3392 3.71278 28.3569 3.71278 28.3835 3.71278C28.368 3.7571 28.3547 3.79698 28.3414 3.83576C27.5659 6.00835 26.7915 8.18094 26.0159 10.3535C25.883 10.7258 25.7257 11.0858 25.5052 11.416C25.1684 11.9212 24.6986 12.2048 24.0971 12.2802C23.7713 12.3211 23.4456 12.32 23.1199 12.289C23.0911 12.2868 23.0656 12.2857 23.0656 12.2436C23.0667 11.9168 23.0667 11.591 23.0678 11.2642C23.0678 11.2609 23.07 11.2576 23.0734 11.2465C23.1166 11.2498 23.1609 11.2531 23.2063 11.2553C23.4002 11.2664 23.593 11.2742 23.7846 11.2343C24.0671 11.1756 24.2732 11.0127 24.4172 10.7657C24.5258 10.5795 24.5779 10.3712 24.6532 10.1718C24.7009 10.0455 24.692 9.93585 24.6455 9.80844C23.9154 7.79982 23.1897 5.78898 22.4629 3.77925C22.4551 3.76042 22.4507 3.73937 22.443 3.71278Z" fill="black"/>
</svg>
