<svg width="26" height="17" viewBox="0 0 26 17" fill="none" xmlns="http://www.w3.org/2000/svg">
<path fill-rule="evenodd" clip-rule="evenodd" d="M17.9207 16.1553C22.1895 16.1553 25.6492 12.7269 25.6492 8.49773C25.6492 4.26855 22.1895 0.840088 17.9207 0.840088C16.0063 0.840088 14.2546 1.52973 12.9046 2.67184C11.5553 1.53267 9.80586 0.845053 7.89419 0.845053C3.6257 0.845053 0.165344 4.27351 0.165344 8.5027C0.165344 12.7319 3.6257 16.1603 7.89419 16.1603C9.80856 16.1603 11.5604 15.4707 12.9105 14.3286C14.2596 15.4677 16.009 16.1553 17.9207 16.1553Z" fill="#ED0006"/>
<path fill-rule="evenodd" clip-rule="evenodd" d="M12.9156 14.3207C14.5779 12.916 15.6319 10.8258 15.6319 8.49164C15.6319 6.15814 14.5785 4.06836 12.917 2.66382C11.2547 4.06836 10.2007 6.1586 10.2007 8.49288C10.2007 10.8264 11.2542 12.916 12.9156 14.3207Z" fill="#FF603C"/>
<path fill-rule="evenodd" clip-rule="evenodd" d="M12.9078 14.3255C14.5697 12.921 15.6233 10.831 15.6233 8.49723C15.6233 6.1634 14.5697 4.07351 12.9078 2.66897C14.2575 1.52822 16.0082 0.8396 17.9213 0.8396C22.1894 0.8396 25.6503 4.26805 25.6503 8.49723C25.6503 12.7264 22.1894 16.1549 17.9213 16.1549C16.0082 16.1549 14.2575 15.4661 12.9078 14.3255Z" fill="#F9A000"/>
</svg>
