<svg width="67" height="19" viewBox="0 0 67 19" fill="none" xmlns="http://www.w3.org/2000/svg">
<path d="M7.86547 5.25596C10.8659 5.25596 13.2417 7.62472 13.2417 10.595C13.2417 13.5749 10.8564 15.9342 7.86547 15.9342C4.86502 15.9342 2.48927 13.5654 2.48927 10.595C2.48927 7.61531 4.87448 5.25596 7.86547 5.25596ZM7.86547 2.718C3.54936 2.718 0.0188599 6.21474 0.0188599 10.5105C0.0188599 14.7968 3.54936 18.3029 7.86547 18.3029C12.1816 18.3029 15.712 14.7968 15.712 10.5105C15.712 6.21474 12.191 2.718 7.86547 2.718ZM15.0116 2.3608V2.88719H15.5417V2.3608H15.0116ZM16.687 1.74981V2.27619H17.217V1.74981H16.687ZM16.687 0.697021V1.22341H17.217V0.697021H16.687Z" fill="#FDB511"/>
<path d="M10.0698 6.65454C8.65957 8.40291 8.30928 9.19254 7.68462 10.6777C7.06938 9.36173 6.27431 8.48751 4.94919 7.87653C4.68416 7.79192 4.59898 7.79192 4.41914 8.05513C4.23931 8.31832 4.33395 8.49692 4.59898 8.76012C5.12902 9.46511 5.74426 10.0761 6.18913 10.7717C6.71918 11.6459 7.24923 13.1405 7.51425 13.4883C7.69408 13.7514 8.0443 13.93 8.22412 13.93C9.01919 13.8455 9.01919 13.4036 9.18958 12.7081C9.45463 11.5707 9.80484 10.3393 11.3098 8.93872V6.74854H10.0793V6.65454H10.0698ZM64.0307 14.7102C63.1504 14.7102 62.4405 14.447 62.0051 13.9206C61.5602 13.3942 61.2953 12.6986 61.2953 11.8151C61.2953 10.9315 61.5602 10.2359 62.0051 9.70952C62.45 9.18313 63.1504 8.83534 64.0307 8.83534C64.8257 8.83534 65.441 9.01394 65.8858 9.44628L65.1759 10.5837C64.9961 10.4051 64.8257 10.3205 64.6459 10.3205C64.4661 10.2359 64.2957 10.2359 64.1158 10.2359C63.406 10.2359 63.0558 10.7623 63.0558 11.8151C63.0558 12.8678 63.406 13.3942 64.1158 13.3942C64.4661 13.3942 64.8257 13.2156 65.2612 12.9525L66.0562 14.0052C65.441 14.447 64.8257 14.7102 64.0307 14.7102ZM57.0643 11.2887H58.8248C58.8248 10.4145 58.5598 9.97267 58.0298 9.97267C57.7647 9.97267 57.5849 10.0573 57.4145 10.2359C57.159 10.5085 57.0643 10.8563 57.0643 11.2887ZM57.0643 12.2569C57.0643 12.6047 57.2441 12.9619 57.4145 13.1311C57.5944 13.3097 57.8594 13.3942 58.2096 13.3942C58.3895 13.3942 58.5598 13.3942 58.8248 13.3097C59.0046 13.225 59.175 13.225 59.2697 13.1311C59.3548 13.0464 59.5347 13.0464 59.7146 12.8678L60.3298 13.9206C60.0648 14.0992 59.8849 14.1838 59.7146 14.2684C59.5347 14.353 59.3644 14.447 59.0046 14.5316C58.7397 14.6162 58.3895 14.6162 58.0393 14.6162C57.2441 14.6162 56.5437 14.353 56.0137 13.8266C55.4836 13.3003 55.3038 12.6047 55.3038 11.7211C55.3038 10.8375 55.5688 10.1419 56.0137 9.53092C56.4586 9.00453 57.159 8.65674 57.954 8.65674C58.8343 8.65674 59.4495 8.91989 59.8092 9.53092C60.2541 10.0573 60.4245 10.8468 60.4245 11.7211V12.1628L57.0643 12.2569ZM51.6029 10.0667H50.8079V8.92931H51.6881L51.9531 7.35013H53.2782V8.92931H54.5087V10.0667H53.2782V12.7833C53.2782 13.0464 53.2783 13.225 53.3635 13.3097C53.4486 13.3942 53.6285 13.4883 53.8935 13.4883C54.0734 13.4883 54.2437 13.4883 54.5087 13.4036L54.6885 14.541C54.2437 14.7196 53.8083 14.7196 53.4581 14.7196C52.2276 14.7196 51.6976 14.1086 51.6976 12.8772V10.0667H51.6029ZM44.9868 14.6162V9.01394H46.0469L46.3971 9.88812C47.0124 9.18313 47.6275 8.92931 48.3374 8.92931C49.3976 8.92931 49.9276 9.63429 49.9276 11.0349V14.7102H48.2523V10.9409C48.2523 10.4991 48.0724 10.2359 47.7222 10.2359C47.372 10.2359 47.0124 10.4145 46.7568 10.6777V14.6162H44.9868ZM41.9863 13.2156V11.9937C41.2764 12.1723 40.8411 12.2569 40.6612 12.4354C40.576 12.52 40.4814 12.6986 40.4814 12.8772C40.4814 13.319 40.6612 13.4883 41.0966 13.4883C41.4657 13.5728 41.7308 13.3942 41.9863 13.2156ZM41.9863 11.0349V10.8563C41.9863 10.5931 41.9011 10.4145 41.8065 10.3299C41.7213 10.2453 41.5415 10.1513 41.1913 10.1513C40.7464 10.1513 40.2258 10.3299 39.6012 10.5931L39.0711 9.54033C39.781 9.09849 40.5665 8.92931 41.3617 8.92931C42.1567 8.92931 42.6868 9.10791 43.037 9.45569C43.3872 9.80348 43.6522 10.3299 43.6522 11.0349V14.7102H42.5921C42.4123 14.2684 42.327 14.0992 42.327 14.0992C41.797 14.541 41.267 14.8042 40.6518 14.8042C40.1217 14.8042 39.6863 14.6256 39.4213 14.3624C39.0711 14.0992 38.8912 13.6575 38.8912 13.1405C38.8912 12.5295 39.0711 12.0876 39.5065 11.8245C39.9608 11.3826 40.7558 11.204 41.9863 11.0349ZM34.4994 9.71893C35.0294 9.10791 35.6447 8.84467 36.2599 8.84467C36.8752 8.84467 37.2254 9.02327 37.4904 9.45569C37.7554 9.80348 37.8406 10.3299 37.8406 10.9409V14.6162H36.1653V10.8468C36.1653 10.4051 35.9855 10.1419 35.6353 10.1419C35.3702 10.1419 35.02 10.3205 34.6698 10.5837V14.5222H32.9944V10.7529C32.9944 10.3111 32.8146 10.0479 32.4644 10.0479C32.1142 10.0479 31.8492 10.2265 31.499 10.4897V14.4283H29.9088V8.84467H30.9689L31.3191 9.71893C31.9343 9.01394 32.5496 8.76012 33.1743 8.76012C33.7895 8.84467 34.2343 9.10791 34.4994 9.71893ZM25.8577 14.8794L23.7375 8.92931H25.4981L26.5582 13.0464L27.4384 8.92931H29.0285L27.3532 14.6256C27.003 15.9416 26.1227 16.6372 24.8828 16.6372C24.6178 16.6372 24.2676 16.6372 23.9173 16.5526L24.0972 15.4152H24.6273C24.8923 15.4152 25.1573 15.3306 25.3372 15.2366C25.5927 15.2366 25.6779 15.058 25.8577 14.8794ZM20.3016 14.7102C19.1564 14.7102 18.1815 14.447 17.481 13.8361L18.1909 12.614C18.8062 13.0558 19.5161 13.225 20.3111 13.225C20.6614 13.225 21.0211 13.1405 21.1914 13.0464C21.3713 12.8678 21.5416 12.6986 21.5416 12.4354V12.2569L21.4564 12.0783L21.3713 11.8997C21.3713 11.8997 21.286 11.8151 21.1914 11.8151C21.0967 11.8151 21.0116 11.7304 21.0116 11.7304C20.9264 11.7304 20.8317 11.6459 20.7465 11.6459C20.6613 11.6459 20.5667 11.5612 20.4815 11.5612C20.3963 11.5612 20.3016 11.4767 20.1313 11.4767C19.9514 11.3921 19.8663 11.3921 19.781 11.3921C19.5161 11.3075 19.251 11.2135 19.0712 11.1289C18.8913 11.0443 18.721 10.8657 18.456 10.6871C18.2762 10.5085 18.1058 10.3393 18.0111 10.0761C17.926 9.81289 17.8313 9.46511 17.8313 9.20187C17.8313 8.49692 18.0963 7.97992 18.5411 7.62273C18.986 7.27493 19.6864 7.01174 20.4815 7.01174C21.4469 7.01174 22.2421 7.19033 22.7721 7.53813L22.2421 8.76012C21.712 8.49692 21.0967 8.41232 20.5667 8.41232C19.7716 8.41232 19.4214 8.67548 19.4214 9.11732C19.4214 9.20187 19.4214 9.29592 19.5066 9.38047C19.5066 9.46511 19.5918 9.55907 19.6864 9.55907C19.7716 9.64371 19.8663 9.64371 19.9514 9.73767C20.1313 9.82231 20.2165 9.82231 20.3016 9.82231C20.3869 9.82231 20.5667 9.90686 20.7465 10.0009C20.8317 10.0009 20.9264 10.0855 20.9264 10.0855C21.1914 10.1701 21.3713 10.2641 21.5416 10.3487C21.7215 10.4332 21.8918 10.5273 22.1568 10.6965C22.3367 10.7811 22.6017 10.9597 22.6869 11.1383C22.8667 11.3168 22.9519 11.4861 23.0371 11.7493C23.1223 12.0125 23.2169 12.2756 23.2169 12.6234C23.2169 13.3284 22.9519 13.8455 22.507 14.2872C21.8918 14.5316 21.182 14.7102 20.3016 14.7102Z" fill="#4B4B4B"/>
<path d="M13.9516 3.41014V2.88375H13.4215V3.41014H13.9516ZM13.9516 3.93653H14.4816V3.41014H13.9516V3.93653ZM15.0117 3.93653H14.4816V4.46293H13.9516V3.93653H12.8915V4.46293H12.2762V4.98931H12.8063V5.51571H12.2762V5.07391H11.7462V5.60031H11.2161V6.12669H10.6861V8.31686H11.7462V7.79047H12.2762V7.26408H12.8063V6.73769H12.2762V6.2113H12.8063V6.73769H13.3363V6.2113H13.8664V5.60031H14.3965V5.07391H14.9265V3.93653H15.0117ZM15.6269 3.41014H16.157V2.88375H15.6269V3.41014ZM15.0117 3.41014V3.93653H15.5417V3.41014H15.0117ZM15.0117 2.35735H14.4816V3.41014H15.0117V2.35735ZM16.157 1.74637H15.0969V2.27276H16.157V1.74637ZM16.157 1.21997V1.74637H16.687V1.21997H16.157Z" fill="#F2F6F9"/>
</svg>
