<svg width="29" height="9" viewBox="0 0 29 9" fill="none" xmlns="http://www.w3.org/2000/svg">
<path fill-rule="evenodd" clip-rule="evenodd" d="M7.32921 8.77054H4.92486L3.12194 2.04152C3.03628 1.73205 2.8546 1.45834 2.58737 1.32943C1.92034 1.00531 1.18528 0.747384 0.383484 0.617243V0.358193H4.25667C4.79124 0.358193 5.1922 0.747394 5.25895 1.19929L6.19448 6.05315L8.59769 0.358193H10.9352L7.32921 8.77054ZM12.2714 8.77054H10.0007L11.8704 0.358193H14.1412L12.2714 8.77054ZM17.0777 2.68751C17.1445 2.23448 17.5455 1.97543 18.0132 1.97543C18.7482 1.91035 19.5489 2.04039 20.2171 2.36339L20.618 0.552173C19.9499 0.293121 19.2148 0.163086 18.5478 0.163086C16.3439 0.163086 14.7402 1.3283 14.7402 2.94543C14.7402 4.17573 15.8761 4.82172 16.678 5.21092C17.5455 5.59899 17.8796 5.85804 17.8127 6.246C17.8127 6.82805 17.1445 7.08721 16.4775 7.08721C15.6757 7.08721 14.8738 6.89312 14.1399 6.569L13.7391 8.38134C14.5409 8.70434 15.4084 8.83448 16.2102 8.83448C18.6814 8.89843 20.2171 7.73422 20.2171 5.98695C20.2171 3.78665 17.0777 3.65763 17.0777 2.68751ZM28.1653 8.77054L26.3624 0.358193H24.4257C24.0248 0.358193 23.6239 0.617244 23.4902 1.00531L20.1516 8.77054H22.4891L22.9556 7.54137H25.8278L26.0951 8.77054H28.1653ZM24.7591 2.62243L25.4262 5.79297H23.5564L24.7591 2.62243Z" fill="#283FA5"/>
</svg>
